<svg xmlns="http://www.w3.org/2000/svg" xmlns:xlink="http://www.w3.org/1999/xlink" viewBox="10765 -1003 1280 800">
  <defs>
    <style>
      .cls-1 {
        clip-path: url(#clip-Web_1280_6);
      }

      .cls-2, .cls-3, .cls-4, .cls-5 {
        opacity: 0.731;
      }

      .cls-2 {
        fill: url(#linear-gradient);
      }

      .cls-3 {
        fill: url(#linear-gradient-2);
      }

      .cls-4 {
        fill: url(#linear-gradient-3);
      }

      .cls-5 {
        fill: url(#linear-gradient-4);
      }

      .cls-6 {
        fill: #fff;
      }
    </style>
    <linearGradient id="linear-gradient" x1="0.09" y1="0.582" x2="0.903" y2="0.595" gradientUnits="objectBoundingBox">
      <stop offset="0" stop-color="#b72880"/>
      <stop offset="1" stop-color="#ffc9fb"/>
    </linearGradient>
    <linearGradient id="linear-gradient-2" x1="0.5" x2="0.5" y2="1" gradientUnits="objectBoundingBox">
      <stop offset="0" stop-color="#fb4473"/>
      <stop offset="1" stop-color="#c946ce"/>
    </linearGradient>
    <linearGradient id="linear-gradient-3" x1="0.09" y1="0.582" x2="0.903" y2="0.595" gradientUnits="objectBoundingBox">
      <stop offset="0" stop-color="#3b84c3"/>
      <stop offset="1" stop-color="#d053cb"/>
    </linearGradient>
    <linearGradient id="linear-gradient-4" x1="0.09" y1="0.582" x2="0.903" y2="0.595" gradientUnits="objectBoundingBox">
      <stop offset="0" stop-color="#8900ff"/>
      <stop offset="1" stop-color="#7da6de"/>
    </linearGradient>
    <clipPath id="clip-Web_1280_6">
      <rect x="10765" y="-1003" width="1280" height="800"/>
    </clipPath>
  </defs>
  <g id="Web_1280_6" data-name="Web 1280 – 6" class="cls-1">
    <rect class="cls-6" x="10765" y="-1003" width="1280" height="800"/>
    <path id="Path_221" data-name="Path 221" class="cls-2" d="M1639.286,0,0,197.283V512.277H1639.286Z" transform="translate(11367.162 -1387.899) rotate(114)"/>
    <path id="Path_222" data-name="Path 222" class="cls-3" d="M0,0,1655.935,298.108V512.277H0Z" transform="matrix(-0.695, 0.719, -0.719, -0.695, 11688.642, -1322.757)"/>
    <path id="Path_223" data-name="Path 223" class="cls-4" d="M1407.164,0,0,112.9V303.062l1407.164,67.233Z" transform="translate(11456.871 -2.199) rotate(-60)"/>
    <path id="Path_224" data-name="Path 224" class="cls-5" d="M0,0,1139.541,154.549V265.582L102.6,341.675,0,172.307Z" transform="matrix(0.891, -0.454, 0.454, 0.891, 11314, -149.633)"/>
    <rect id="Rectangle_178" data-name="Rectangle 178" class="cls-6" width="1630" height="317" transform="translate(10610.938 -572.216) rotate(-9)"/>
  </g>
</svg>
