<svg xmlns="http://www.w3.org/2000/svg" viewBox="-5548.794 -5481 160.273 111.5"><defs><style>.a{fill:#f8b981;}.b{fill:#ed903d;}.c{fill:#fff;}</style></defs><g transform="translate(-5809 -7937)"><rect class="a" width="41.296" height="30.677" transform="translate(315.25 2533.283)"/><rect class="b" width="152.206" height="83.773" transform="translate(260.205 2456)"/><rect class="c" width="144.487" height="76.233" transform="translate(264.155 2459.77)"/><rect class="a" width="54.403" height="27.168" transform="translate(338.543 2467.83)"/><rect class="a" width="54.403" height="27.168" transform="translate(338.543 2500.867)"/><rect class="b" width="71.974" height="14.159" transform="translate(299.912 2553.341)"/><rect class="a" width="54.403" height="27.168" transform="translate(279.409 2467.83)"/><rect class="a" width="54.403" height="27.168" transform="translate(279.409 2500.867)"/><rect class="b" width="43.82" height="69.385" transform="translate(376.659 2497.587)"/><rect class="c" width="37.424" height="57.046" transform="translate(379.857 2500.486)"/><rect class="c" width="4.847" height="4.75" transform="translate(396.717 2559.862)"/><rect class="a" width="27.929" height="10.517" transform="translate(384.664 2530.394)"/><rect class="a" width="27.929" height="10.517" transform="translate(384.664 2517.563)"/><rect class="a" width="27.929" height="10.517" transform="translate(384.664 2504.731)"/><rect class="a" width="27.929" height="10.517" transform="translate(384.664 2543.184)"/></g></svg>