<svg xmlns="http://www.w3.org/2000/svg" viewBox="-4911.795 -5480 138.591 114.935"><defs><style>.a,.c,.d{fill:#fff;}.a{stroke:#f8b981;stroke-width:5px;}.b{fill:#f8b981;}.c{stroke:#ed903d;stroke-width:3px;}.e{fill:#ed903d;}.f{stroke:none;}.g{fill:none;}</style></defs><g transform="translate(-804.143 539.979)"><g class="a" transform="translate(-4107.652 -6003.417)"><rect class="f" width="138.591" height="87.164"/><rect class="g" x="2.5" y="2.5" width="133.591" height="82.164"/></g><g class="a" transform="translate(-4107.652 -6019.979)"><rect class="f" width="138.591" height="20.919"/><rect class="g" x="2.5" y="2.5" width="133.591" height="15.919"/></g><path class="b" d="M375.315,52a1.815,1.815,0,1,0,1.815,1.815A1.817,1.817,0,0,0,375.315,52Z" transform="translate(-4363.438 -6063.376)"/><path class="b" d="M334.315,52a1.815,1.815,0,1,0,1.815,1.815A1.817,1.817,0,0,0,334.315,52Z" transform="translate(-4331.74 -6063.376)"/><path class="b" d="M416.315,52a1.815,1.815,0,1,0,1.815,1.815A1.817,1.817,0,0,0,416.315,52Z" transform="translate(-4395.137 -6063.376)"/><path class="b" d="M117.167,168H91.726a4.156,4.156,0,0,0-4.152,4.152v.088h-1.5a4.156,4.156,0,0,0-4.152,4.152v11.4h-3v-4.328a4.156,4.156,0,0,0-4.152-4.152H52.152A4.156,4.156,0,0,0,48,183.459v11.307a4.156,4.156,0,0,0,4.152,4.152H74.766a4.156,4.156,0,0,0,4.152-4.152v-4.328h3v11.4a4.156,4.156,0,0,0,4.152,4.152h1.5v.088a4.156,4.156,0,0,0,4.152,4.152h25.441a4.156,4.156,0,0,0,4.152-4.152v-2.827a4.156,4.156,0,0,0-4.152-4.152H91.726a4.156,4.156,0,0,0-4.152,4.152v.088h-1.5a1.5,1.5,0,0,1-1.5-1.5v-11.4h3v.088a4.156,4.156,0,0,0,4.152,4.152h25.441a4.156,4.156,0,0,0,4.152-4.152V187.7a4.156,4.156,0,0,0-4.152-4.152H91.726a4.156,4.156,0,0,0-4.152,4.152v.088h-3v-11.4a1.5,1.5,0,0,1,1.5-1.5h1.5v.088a4.156,4.156,0,0,0,4.152,4.152h25.441a4.156,4.156,0,0,0,4.152-4.152v-2.827A4.156,4.156,0,0,0,117.167,168Zm-40.9,26.766a1.5,1.5,0,0,1-1.5,1.5H52.152a1.5,1.5,0,0,1-1.5-1.5V183.459a1.5,1.5,0,0,1,1.5-1.5H74.766a1.5,1.5,0,0,1,1.5,1.5Zm13.957,8.48a1.5,1.5,0,0,1,1.5-1.5h25.441a1.5,1.5,0,0,1,1.5,1.5v2.827a1.5,1.5,0,0,1-1.5,1.5H91.726a1.5,1.5,0,0,1-1.5-1.5Zm0-15.547a1.5,1.5,0,0,1,1.5-1.5h25.441a1.5,1.5,0,0,1,1.5,1.5v2.827a1.5,1.5,0,0,1-1.5,1.5H91.726a1.5,1.5,0,0,1-1.5-1.5Zm28.444-12.72a1.5,1.5,0,0,1-1.5,1.5H91.726a1.5,1.5,0,0,1-1.5-1.5v-2.827a1.5,1.5,0,0,1,1.5-1.5h25.441a1.5,1.5,0,0,1,1.5,1.5Z" transform="translate(-4106.125 -6146.592)"/><g class="c" transform="translate(-4058.101 -5967.771)"><rect class="f" width="31.285" height="20.307"/><rect class="g" x="1.5" y="1.5" width="28.285" height="17.307"/></g><g class="c" transform="translate(-4018.689 -5979.836)"><rect class="f" width="36.111" height="13.873"/><rect class="g" x="1.5" y="1.5" width="33.111" height="10.873"/></g><g class="c" transform="translate(-4018.689 -5964.553)"><rect class="f" width="36.111" height="13.873"/><rect class="g" x="1.5" y="1.5" width="33.111" height="10.873"/></g><g class="c" transform="translate(-4018.689 -5948.467)"><rect class="f" width="36.111" height="13.873"/><rect class="g" x="1.5" y="1.5" width="33.111" height="10.873"/></g><rect class="b" width="2.994" height="2.994" transform="translate(-4092.955 -5987.38)"/><rect class="b" width="2.994" height="2.994" transform="translate(-4086.967 -5987.38)"/><rect class="b" width="2.994" height="2.994" transform="translate(-4080.978 -5987.38)"/><rect class="b" width="2.994" height="2.994" transform="translate(-4086.967 -5981.392)"/><rect class="b" width="2.994" height="2.994" transform="translate(-4092.955 -5981.392)"/><rect class="b" width="2.994" height="2.994" transform="translate(-4092.955 -5975.404)"/><rect class="b" width="2.994" height="2.994" transform="translate(-4092.955 -5969.416)"/><rect class="b" width="2.994" height="2.994" transform="translate(-4092.955 -5963.427)"/><rect class="b" width="2.994" height="2.994" transform="translate(-4092.955 -5957.439)"/><rect class="b" width="2.994" height="2.994" transform="translate(-4092.955 -5951.451)"/><rect class="b" width="2.994" height="2.994" transform="translate(-4092.955 -5945.463)"/><rect class="b" width="2.994" height="2.994" transform="translate(-4092.955 -5939.475)"/><rect class="b" width="2.994" height="2.994" transform="translate(-4092.955 -5933.487)"/><rect class="d" width="10" height="12" transform="translate(-4079.857 -5923.979)"/><path class="e" d="M21.335,10.048a1.39,1.39,0,0,0-2.695,0L14.3,23.072a2.128,2.128,0,0,0-.3.9V83.852a1.414,1.414,0,0,0,1.5,1.5h8.982a1.414,1.414,0,0,0,1.5-1.5V23.97a1.6,1.6,0,0,0-.3-.9ZM16.994,25.467h1.5V71.876h-1.5Zm4.491,0h1.5V71.876h-1.5Zm-1.5-10.18,2.4,7.186H17.593Zm2.994,67.067H16.994V74.87h5.988Z" transform="translate(-4094.978 -5990.392)"/></g></svg>