<svg xmlns="http://www.w3.org/2000/svg" viewBox="-5244 -6545 159 119"><defs><style>.a{fill:#fff;stroke:#cb90ff;stroke-width:5px;}.b{fill:#cb90ff;}.c{fill:#8900ff;}.d{stroke:none;}.e{fill:none;}</style></defs><g transform="translate(-5809 -7937)"><g class="a" transform="translate(565 1392)"><rect class="d" width="159" height="24"/><rect class="e" x="2.5" y="2.5" width="154" height="19"/></g><g class="a" transform="translate(565 1411)"><rect class="d" width="159" height="100"/><rect class="e" x="2.5" y="2.5" width="154" height="95"/></g><path class="b" d="M375.582,52a2.082,2.082,0,1,0,2.082,2.082A2.085,2.085,0,0,0,375.582,52Z" transform="translate(326.548 1349.87)"/><path class="b" d="M334.582,52a2.082,2.082,0,1,0,2.082,2.082A2.085,2.085,0,0,0,334.582,52Z" transform="translate(356.877 1349.87)"/><path class="b" d="M416.582,52a2.082,2.082,0,1,0,2.082,2.082A2.085,2.085,0,0,0,416.582,52Z" transform="translate(296.22 1349.87)"/><path class="c" d="M143.21,180.91a1.952,1.952,0,0,0,.572,1.38l20.31,20.049a1.952,1.952,0,0,0,2.761,0l5.521-5.521a1.952,1.952,0,0,0,0-2.76l-20.31-19.975a1.952,1.952,0,0,0-2.761,0l-1.38,1.38,2.254,1.919a25.252,25.252,0,1,0-2.755,2.767l-2.26-1.925-1.38,1.38a1.785,1.785,0,0,0-.572,1.307Zm-27.483-4.85a21.472,21.472,0,1,1,15.183,6.289A21.5,21.5,0,0,1,115.727,176.059Zm52.506,19.378-2.76,2.761L153,185.722l1.38-1.38,1.381-1.381Z" transform="translate(511.76 1292.103)"/><path class="c" d="M165.514,170.645a17.569,17.569,0,1,0,0,24.846A17.454,17.454,0,0,0,165.514,170.645Zm-2.761,22.085a13.664,13.664,0,1,1,0-19.324A13.575,13.575,0,0,1,162.754,192.73Z" transform="translate(489.579 1269.912)"/></g></svg>