<svg xmlns="http://www.w3.org/2000/svg" viewBox="-5215 -5494 126 124.5"><defs><style>.a{fill:#ed903d;}.b{fill:#fff;stroke:#f8b981;stroke-width:3px;}.c{stroke:none;}.d{fill:none;}</style></defs><g transform="translate(-5809 -7937)"><g transform="translate(54)"><path class="a" d="M115.064,81.339a7.925,7.925,0,0,0-7.654,5.952H82.5l-5.13,5.13V55.548H97.21a7.935,7.935,0,1,0,0-15.871H80.176l7.935-7.935h19.3a7.936,7.936,0,1,0,0-3.968H86.469l-11.9,11.9h-2.6A15.847,15.847,0,1,0,50.714,16.167L40.5,5.952H15.589a7.936,7.936,0,1,0,0,3.968H38.856l9.3,9.3a15.786,15.786,0,0,0,2.883,20.46H25.79a7.935,7.935,0,0,0,0,15.871H45.629v7.114l-8.757,8.757H15.589a7.936,7.936,0,1,0,0,3.968H38.515l7.114-7.114v43.986l-5.13-5.13H15.589a7.936,7.936,0,1,0,0,3.968H38.856l6.773,6.773V123H77.371V98.031l6.773-6.773h23.267a7.923,7.923,0,1,0,7.654-9.919Zm0-55.548a3.968,3.968,0,1,1-3.968,3.968A3.972,3.972,0,0,1,115.064,25.79ZM7.935,11.9A3.968,3.968,0,1,1,11.9,7.935,3.972,3.972,0,0,1,7.935,11.9Zm0,65.468A3.968,3.968,0,1,1,11.9,73.4,3.972,3.972,0,0,1,7.935,77.371Zm0,35.71a3.968,3.968,0,1,1,3.968-3.968A3.972,3.972,0,0,1,7.935,113.081ZM87.29,43.645H97.21a3.968,3.968,0,1,1,0,7.935H87.29ZM49.6,27.774a11.9,11.9,0,1,1,11.9,11.9A11.915,11.915,0,0,1,49.6,27.774Zm15.71,15.871L61.5,48.4l-3.807-4.759Zm-29.6,7.935H25.79a3.968,3.968,0,1,1,0-7.935H35.71Zm23.806,67.452H49.6v-3.968h9.919Zm13.887,0H63.484v-3.968H73.4Zm0-7.935H63.484V85.306H59.516V111.1H49.6V77.371H73.4Zm0-59.516V73.4H49.6V51.581H39.677V43.645H52.61L61.5,54.757l8.89-11.112H83.323v7.935Zm41.661,41.661a3.968,3.968,0,1,1,3.968-3.968A3.972,3.972,0,0,1,115.064,93.242Z" transform="translate(541.5 2444.5)"/><g class="b" transform="translate(540 2443)"><circle class="c" cx="9" cy="9" r="9"/><circle class="d" cx="9" cy="9" r="7.5"/></g><g class="b" transform="translate(540 2509)"><circle class="c" cx="9" cy="9" r="9"/><circle class="d" cx="9" cy="9" r="7.5"/></g><g class="b" transform="translate(540 2545)"><circle class="c" cx="9" cy="9" r="9"/><circle class="d" cx="9" cy="9" r="7.5"/></g><g class="b" transform="translate(648 2525)"><circle class="c" cx="9" cy="9" r="9"/><circle class="d" cx="9" cy="9" r="7.5"/></g><g class="b" transform="translate(648 2465)"><circle class="c" cx="9" cy="9" r="9"/><circle class="d" cx="9" cy="9" r="7.5"/></g></g></g></svg>