<svg xmlns="http://www.w3.org/2000/svg" viewBox="-5543.931 -4521.931 137.382 137.382"><defs><style>.a{fill:#fcb0c3;}.b{fill:#fb4473;}</style></defs><g transform="translate(-5809 -7937)"><g transform="translate(4660.049 7950.049)"><path class="a" d="M117.891,44.181a34.309,34.309,0,0,0,1.479-12.248C118.35,14.467,103.553.14,86.386,0h-.266a33.508,33.508,0,0,0-31.11,21.84,24.844,24.844,0,0,0-18.327-5.612A25.385,25.385,0,0,0,15.561,33.244a25.057,25.057,0,0,0-1.086,12.8A26.178,26.178,0,0,0,0,69.49C0,83.952,10.834,94.45,25.759,94.45V88.726c-11.8,0-20.035-7.91-20.035-19.235A20.362,20.362,0,0,1,18.78,50.411l2.443-.911-.681-2.516a19.981,19.981,0,0,1,16.706-25.06,19.216,19.216,0,0,1,16.9,7.164l3.769,4.7L59.182,27.9A27.857,27.857,0,0,1,86.121,5.724h.218c14.216.115,26.469,12.024,27.315,26.545a28.567,28.567,0,0,1-2.265,13.022l-1.537,3.594,3.889.38A20.045,20.045,0,0,1,131.658,69.49c0,11.326-8.238,19.235-20.035,19.235V94.45c14.926,0,25.759-10.5,25.759-24.96A25.826,25.826,0,0,0,117.891,44.181Z" transform="translate(-4394.979 -4534.979)"/><g transform="translate(-4366.358 -4474.875)"><path class="b" d="M182.539,243.661V215.04H102.4v28.621h14.311v5.724H102.4v28.621h12.88v8.586H105.262v5.724h74.415v-5.724H169.66v-8.586h12.88V249.385H171.091v-5.724Zm-18.6,42.932H121v-8.586h42.932Zm12.88-31.483v17.173H108.124V255.11Zm-54.38-5.724v-5.724h42.932v5.724Zm-14.311-11.449V220.764h68.691v17.173Z" transform="translate(-102.4 -215.04)"/></g><rect class="a" width="22.897" height="5.724" transform="translate(-4354.91 -4463.426)"/><rect class="a" width="5.724" height="5.724" transform="translate(-4303.392 -4463.426)"/><rect class="a" width="5.724" height="5.724" transform="translate(-4314.84 -4463.426)"/><rect class="a" width="22.897" height="5.724" transform="translate(-4354.91 -4429.081)"/><rect class="a" width="5.724" height="5.724" transform="translate(-4303.392 -4429.081)"/><rect class="a" width="5.724" height="5.724" transform="translate(-4314.84 -4429.081)"/></g></g></svg>