<svg xmlns="http://www.w3.org/2000/svg" viewBox="-4398.056 -6242.056 192.112 192.112"><defs><style>.a{fill:#cb90ff;}.b{fill:#8900ff;}</style></defs><path class="a" d="M194.522,110.728H163.035A172.223,172.223,0,0,0,157,67.526h20.649a3.066,3.066,0,1,0,0-6.131H155.12a96.631,96.631,0,0,0-12.489-25.611,3.066,3.066,0,0,0-4.99,3.563,88.5,88.5,0,0,1,11.022,22.048h-31.8V33.066a3.066,3.066,0,1,0-6.131,0V61.394h-31.8A88.5,88.5,0,0,1,89.945,39.347a3.066,3.066,0,1,0-4.99-3.563A96.637,96.637,0,0,0,72.467,61.394H49.94a3.066,3.066,0,0,0,0,6.131H70.589a172.26,172.26,0,0,0-6.038,43.2H33.066a3.066,3.066,0,1,0,0,6.131H64.552a172.223,172.223,0,0,0,6.038,43.2H49.94a3.066,3.066,0,1,0,0,6.131H72.467a96.625,96.625,0,0,0,12.491,25.615,3.066,3.066,0,1,0,4.99-3.563,88.5,88.5,0,0,1-11.025-22.051h31.8v28.328a3.066,3.066,0,1,0,6.131,0V166.193h31.8a88.474,88.474,0,0,1-11.025,22.051,3.066,3.066,0,1,0,4.99,3.563,96.637,96.637,0,0,0,12.491-25.615h22.527a3.066,3.066,0,1,0,0-6.131H157a172.222,172.222,0,0,0,6.038-43.2h31.486a3.065,3.065,0,1,0,0-6.131Zm-43.883-43.2a164.81,164.81,0,0,1,6.264,43.2H116.859v-43.2Zm-73.689,0h33.779v43.2H70.684A164.825,164.825,0,0,1,76.949,67.526Zm0,92.536a164.81,164.81,0,0,1-6.264-43.2h40.044v43.2Zm73.689,0H116.859v-43.2H156.9A164.822,164.822,0,0,1,150.638,160.062Z" transform="translate(-4415.793 -6259.793)"/><path class="b" d="M163.978,28.134A96.06,96.06,0,0,0,15.845,148.914L4.106,184.127a3.066,3.066,0,0,0,3.878,3.878L43.2,176.268A96.059,96.059,0,0,0,163.978,28.134ZM96.056,185.981a89.437,89.437,0,0,1-50.669-15.629,3.065,3.065,0,0,0-2.7-.377L11.862,180.25l10.276-30.825a3.068,3.068,0,0,0-.377-2.7,89.928,89.928,0,1,1,74.3,39.256Z" transform="translate(-4398.056 -6242.056)"/></svg>