<svg xmlns="http://www.w3.org/2000/svg" viewBox="-5190.931 -4489.931 97.875 97.875"><defs><style>.a{fill:#fcb0c3;}.b{fill:#fb4473;}</style></defs><g transform="translate(-5809 -7937)"><path class="a" d="M48.938,0A48.938,48.938,0,1,0,97.875,48.938,48.937,48.937,0,0,0,48.938,0Zm0,88.087a39.15,39.15,0,1,1,39.15-39.15A39.15,39.15,0,0,1,48.938,88.087Z" transform="translate(618.069 3447.069)"/><path class="b" d="M63.619,44.063l-12.665.051c-1.353.006-1.85-.907-1.114-2.043L63.4,21.229c1.474-2.265,1.118-2.552-.79-.641L32.823,50.369c-1.912,1.911-1.27,3.452,1.434,3.441l10.215-.041c2.7-.011,3.7,1.816,2.227,4.082L33.143,78.695c-.736,1.133-.559,1.279.4.327L54.831,57.886c.958-.953,2.5-2.5,3.45-3.466l6.8-6.892C66.974,45.606,66.32,44.051,63.619,44.063Z" transform="translate(618.069 3446.069)"/></g></svg>