<svg xmlns="http://www.w3.org/2000/svg" viewBox="9529 1193 163.499 48.642"><defs><style>.a{fill:#030303;stroke:rgba(0,0,0,0);}.b{fill:#1e86f3;}</style></defs><g transform="translate(9485 1163)"><path class="a" d="M2.623,0,9.129-33.232,19.739-9.209,30.73-33.232,36.576,0H31.791L28.808-18.658,19.659,1.421l-8.889-20.1L7.447,0ZM56.635-19.5H61.16V0H56.635V-2.042a8.639,8.639,0,0,1-5.986,2.6,8.624,8.624,0,0,1-6.687-2.923A10.87,10.87,0,0,1,41.34-9.81a10.535,10.535,0,0,1,2.623-7.307,8.454,8.454,0,0,1,6.566-2.923,8.292,8.292,0,0,1,6.106,2.8ZM45.945-9.81a6.792,6.792,0,0,0,1.5,4.564A4.918,4.918,0,0,0,51.33-3.463a5.169,5.169,0,0,0,4.044-1.722,6.667,6.667,0,0,0,1.542-4.524,6.667,6.667,0,0,0-1.542-4.524,5.1,5.1,0,0,0-4-1.742,4.979,4.979,0,0,0-3.884,1.762A6.494,6.494,0,0,0,45.945-9.81Zm20.9-9.689H71.37v1.8a7.383,7.383,0,0,1,5.325-2.342A6.725,6.725,0,0,1,82-17.9q1.642,1.822,1.642,5.946V0H79.117V-10.891a7.142,7.142,0,0,0-.8-3.984A3.231,3.231,0,0,0,75.474-16a3.476,3.476,0,0,0-3.183,1.481q-.921,1.461-.921,5.1V0H66.845ZM103.7-33.813h4.524V0H103.7V-2.042a8.4,8.4,0,0,1-6.026,2.6,8.58,8.58,0,0,1-6.646-2.923A10.87,10.87,0,0,1,88.406-9.81,10.507,10.507,0,0,1,91.029-17.1a8.369,8.369,0,0,1,6.546-2.943,8.312,8.312,0,0,1,6.126,2.8Zm-10.69,24a6.792,6.792,0,0,0,1.5,4.564A4.918,4.918,0,0,0,98.4-3.463a5.169,5.169,0,0,0,4.044-1.722,6.667,6.667,0,0,0,1.542-4.524,6.667,6.667,0,0,0-1.542-4.524,5.1,5.1,0,0,0-4-1.742,4.979,4.979,0,0,0-3.884,1.762A6.494,6.494,0,0,0,93.011-9.81Zm25.4-9.689V-8.308q0,4.845,3.824,4.845t3.824-4.845V-19.5h4.5V-8.208a12.563,12.563,0,0,1-.581,4.044,6.793,6.793,0,0,1-1.942,2.743A8.535,8.535,0,0,1,122.239.561a8.506,8.506,0,0,1-5.786-1.982,6.9,6.9,0,0,1-1.982-2.743,11.152,11.152,0,0,1-.561-4.044V-19.5Zm17.837,0h4.5v1.8a9.412,9.412,0,0,1,2.222-1.842,5.392,5.392,0,0,1,2.462-.5,5.977,5.977,0,0,1,5.225,2.883,6.763,6.763,0,0,1,5.746-2.883q6.586,0,6.586,7.988V0h-4.524V-10.831a8.355,8.355,0,0,0-.681-3.964,2.467,2.467,0,0,0-2.3-1.181,2.937,2.937,0,0,0-2.713,1.4,9.025,9.025,0,0,0-.851,4.5V0H147.4V-10.771q0-5.205-3-5.205a3.01,3.01,0,0,0-2.773,1.421,8.864,8.864,0,0,0-.871,4.484V0h-4.5Z" transform="translate(44 76)"/><rect class="b" width="75" height="6" transform="translate(44 30)"/></g></svg>