<svg xmlns="http://www.w3.org/2000/svg" viewBox="32.641 7.727 136.802 72.25"><defs><style>.a{fill:#ef2f2f;}.b{fill:#004ba6;}</style></defs><path class="a" d="M598.641-277.026l7.418-13.549H622.97s10.17,1.95,1.593-7.4-13.176-17.177-9.5-22.031,5.509-4.808,16.289-4.808h77.315l8.2,11.972H699.057v22.263h26.615l9.77,12.616H699.057s-14.017.762-14.017-12.616V-307.2a11.227,11.227,0,0,0-1.215-5.333c-1.307-2.083-4.843-1.92-4.843-1.92s-4.39.136-5.7,1.615-1.187,5.638-1.187,5.638v29.241H655.586V-307.2s-.127-6.785-6.811-6.785H635.143s-7.681,1.282,0,8.978,10.322,10.258,10.313,15.648-2.557,12.526-10.313,12.333-36.5,0-36.5,0Z" transform="translate(-566 357)"/><path class="b" d="M689.285-344.657c-5.684,3.817-7.861,5.613-7.424,10.313s7.976,3.245,7.976,3.245,5.469-1.218,8.836-4.541,9.828-8.809,6.521-12.117S694.969-348.474,689.285-344.657Z" transform="translate(-567 357)"/></svg>